<?xml version="1.0" encoding="UTF-8"?>
<!-- Created with Inkscape (http://www.inkscape.org/) -->
<svg width="24" height="24" version="1.1" viewBox="0 0 6.35 6.35" xmlns="http://www.w3.org/2000/svg">
 <path d="m0 0v1.0583h1.0583v-1.0583h-1.0583zm1.0583 1.0583v1.0583h1.0583v-1.0583h-1.0583zm1.0583 0h1.0583v-1.0583h-1.0583v1.0583zm1.0583 0v1.0583h1.0583v-1.0583h-1.0583zm1.0583 0h1.0583v-1.0583h-1.0583v1.0583zm1.0583 0v1.0583h1.0583v-1.0583h-1.0583zm0 1.0583h-1.0583v1.0583h1.0583v-1.0583zm0 1.0583v1.0583h1.0583v-1.0583h-1.0583zm0 1.0583h-1.0583v1.0583h1.0583v-1.0583zm0 1.0583v1.0583h1.0583v-1.0583h-1.0583zm-1.0583 0h-1.0583v1.0583h1.0583v-1.0583zm-1.0583 0v-1.0583h-1.0583v1.0583h1.0583zm-1.0583 0h-1.0583v1.0583h1.0583v-1.0583zm-1.0583 0v-1.0583h-1.0583v1.0583h1.0583zm0-1.0583h1.0583v-1.0583h-1.0583v1.0583zm0-1.0583v-1.0583h-1.0583v1.0583h1.0583zm1.0583 0h1.0583v-1.0583h-1.0583v1.0583zm1.0583 0v1.0583h1.0583v-1.0583h-1.0583z" fill="#fff" stroke-width="0"/>
</svg>
