<?xml version="1.0" encoding="UTF-8"?>
<!-- Created with Inkscape (http://www.inkscape.org/) -->
<svg width="24" height="24" version="1.1" viewBox="0 0 6.35 6.35" xml:space="preserve" xmlns="http://www.w3.org/2000/svg"><path d="m3.175 0a3.175 3.175 0 0 0-3.175 3.175 3.175 3.175 0 0 0 3.175 3.175 3.175 3.175 0 0 0 3.175-3.175 3.175 3.175 0 0 0-3.175-3.175zm-0.13229 0.79737v1.8655a0.52917 0.52917 0 0 0-0.13643 0.056327l-1.3188-1.3188a2.3812 2.3812 0 0 1 1.4552-0.60306zm0.26458 0a2.3812 2.3812 0 0 1 1.4552 0.60306l-1.3188 1.3188a0.52917 0.52917 0 0 0-0.13643-0.056327v-1.8655zm-1.9069 0.79013 1.3188 1.3188a0.52917 0.52917 0 0 0-0.056327 0.13643h-1.8655a2.3812 2.3812 0 0 1 0.60306-1.4552zm3.5491 0a2.3812 2.3812 0 0 1 0.60306 1.4552h-1.8655a0.52917 0.52917 0 0 0-0.056327-0.13643l1.3188-1.3188zm-4.1522 1.7198h1.8655a0.52917 0.52917 0 0 0 0.056327 0.13643l-1.3188 1.3188a2.3812 2.3812 0 0 1-0.60306-1.4552zm2.8897 0h1.8655a2.3812 2.3812 0 0 1-0.60306 1.4552l-1.3188-1.3188a0.52917 0.52917 0 0 0 0.056327-0.13643zm-0.78083 0.32349a0.52917 0.52917 0 0 0 0.13643 0.056327v1.8655a2.3812 2.3812 0 0 1-1.4552-0.60306l1.3188-1.3188zm0.53743 0 1.3188 1.3188a2.3812 2.3812 0 0 1-1.4552 0.60306v-1.8655a0.52917 0.52917 0 0 0 0.13643-0.056327z" fill="#fff"/></svg>
