<?xml version="1.0" encoding="UTF-8"?>
<!-- Created with Inkscape (http://www.inkscape.org/) -->
<svg width="24" height="24" version="1.1" viewBox="0 0 6.35 6.35" xmlns="http://www.w3.org/2000/svg">
 <path d="m0.51573 0.26562a0.26458 0.26458 0 0 0-0.18345 0.085783 0.26458 0.26458 0 0 0 0.01912 0.3731l1.2366 1.1188v2.7616a1.0583 0.79375 0 0 0-0.52968-0.10697 1.0583 0.79375 0 0 0-1.0583 0.79375 1.0583 0.79375 0 0 0 1.0583 0.79375 1.0583 0.79375 0 0 0 1.0583-0.79375 1.0583 0.79375 0 0 0 0-5.167e-4h5.168e-4v-2.6856l0.26458-0.043925 1.5844 1.4335a1.0583 0.79375 0 0 0-0.79117 0.7674 1.0583 0.79375 0 0 0 1.0583 0.79375 1.0583 0.79375 0 0 0 0.95653-0.45424l0.7183 0.65009a0.26458 0.26458 0 0 0 0.3731-0.01757 0.26458 0.26458 0 0 0-0.01757-0.37517l-0.97255-0.88005v-3.6866a0.26461 0.26461 0 0 0-0.2496-0.26252 0.26461 0.26461 0 0 0-0.056844 0.0031006l-3.176 0.52917a0.26461 0.26461 0 0 0-0.17157 0.1111l-0.93018-0.84129a0.26458 0.26458 0 0 0-0.1912-0.066663zm4.2463 0.83974v0.52348l-2.2138 0.36897-0.43098-0.38964v-0.061495l2.6448-0.44132zm0 1.0594v1.8361l-1.7136-1.5503 1.7136-0.28577z" fill="#fff"/>
</svg>
