<?xml version="1.0" encoding="UTF-8"?>
<!-- Created with Inkscape (http://www.inkscape.org/) -->
<svg width="24" height="24" version="1.1" viewBox="0 0 6.35 6.35" xmlns="http://www.w3.org/2000/svg">
 <path d="m5.0416 0.5302a0.26461 0.26461 0 0 0-0.056844 0.003101l-3.176 0.52917a0.26461 0.26461 0 0 0-0.22066 0.25993v3.2825a1.0583 0.79375 0 0 0-0.52968-0.10697 1.0583 0.79375 0 0 0-1.0583 0.79375 1.0583 0.79375 0 0 0 1.0583 0.79375 1.0583 0.79375 0 0 0 1.0583-0.79375 1.0583 0.79375 0 0 0 0-5.167e-4h5.168e-4v-2.6856l2.6448-0.4408v1.9105a1.0583 0.79375 0 0 0-0.52865-0.10645 1.0583 0.79375 0 0 0-1.0583 0.79375 1.0583 0.79375 0 0 0 1.0583 0.79375 1.0583 0.79375 0 0 0 1.0583-0.79375 1.0583 0.79375 0 0 0-5.168e-4 -0.01912v-3.9507a0.26461 0.26461 0 0 0-0.2496-0.26252zm-0.27957 0.57516v0.52348l-2.6448 0.4408v-0.52297z" fill="#fff"/>
</svg>
