<?xml version="1.0" encoding="UTF-8"?>
<svg width="1024" height="1024" version="1.1" viewBox="0 0 1024 1024" xmlns="http://www.w3.org/2000/svg">
 <rect x="-.002" width="1024" height="1024" fill="#f00"/>
 <g fill="#0f0">
  <g stroke-width="3.1121">
   <path d="m169.77 565.93-10 25v433.07h340v-433.07l-10-25-10 25-10-25-10 25-10-25-10 25-10-25-10 25-10-25-10 25-10-25-10 25-10-25-10 25-10-25-10 25-10-25-10 25-10-25-10 25-10-25-10 25-10-25-10 25-10-25-10 25-10-25-10 25-10-25-10 25-10-25-10 25-10-25zm-117.04 0.25-10 25h-19.301v432.82h132.41v-432.82h-13.105l-10-25-10 25-10-25-10 25-10-25-10 25-10-25-10 25-10-25zm474.08 0-10 25h-15.523v432.82h132.48v-432.82h-16.955l-10-25-10 25-10-25-10 25-10-25-10 25-10-25-10 25-10-25z"/>
   <path d="m349.77 515.93-10 25 10 25 10-25-10-25z"/>
   <path d="m389.77 515.93-10 25 10 25 10-25-10-25z"/>
   <path d="m429.77 515.93-10 25 10 25 10-25-10-25z"/>
   <path d="m469.77 515.93-10 25 10 25 10-25-10-25z"/>
   <path d="m189.77 515.93-10 25 10 25 10-25-10-25z"/>
   <path d="m229.77 515.93-10 25 10 25 10-25-10-25z"/>
   <path d="m269.77 515.93-10 25 10 25 10-25-10-25z"/>
   <path d="m309.77 515.93-10 25 10 25 10-25-10-25z"/>
   <path d="m546.81 516.18-10 25 10 25 10-25-10-25z"/>
   <path d="m586.81 516.18-10 25 10 25 10-25-10-25z"/>
   <path d="m72.734 516.18-10 25 10 25 10-25-10-25z"/>
   <path d="m112.73 516.18-10 25 10 25 10-25-10-25z"/>
   <path d="m329.77 465.93-10 25 10 25 10-25-10-25z"/>
   <path d="m369.77 465.93-10 25 10 25 10-25-10-25z"/>
   <path d="m409.77 465.93-10 25 10 25 10-25-10-25z"/>
   <path d="m449.77 465.93-10 25 10 25 10-25-10-25z"/>
   <path d="m209.77 465.93-10 25 10 25 10-25-10-25z"/>
   <path d="m249.77 465.93-10 25 10 25 10-25-10-25z"/>
   <path d="m289.77 465.93-10 25 10 25 10-25-10-25z"/>
   <path d="m349.77 415.93-10 25 10 25 10-25-10-25z"/>
   <path d="m389.77 415.93-10 25 10 25 10-25-10-25z"/>
   <path d="m429.77 415.93-10 25 10 25 10-25-10-25z"/>
   <path d="m229.77 415.93-10 25 10 25 10-25-10-25z"/>
   <path d="m269.77 415.93-10 25 10 25 10-25-10-25z"/>
   <path d="m309.77 415.93-10 25 10 25 10-25-10-25z"/>
  </g>
  <rect x="666.93" y="286.65" width="338.43" height="117.23"/>
 </g>
</svg>
