<?xml version="1.0" encoding="UTF-8"?>
<svg width="1024" height="1024" version="1.1" viewBox="0 0 1024 1024" xmlns="http://www.w3.org/2000/svg">
 <rect x="-.00097656" width="1024" height="1024" fill="#f00"/>
 <g fill="#0f0">
  <g fill-opacity=".25">
   <path d="m503.95 386.92c-186.44 0-337.58 102-337.58 227.83v409.25h337.58v-409.25z"/>
   <path d="m503.95 418.78c-177.12 0-320.7 96.901-320.7 216.43v388.79h320.7v-388.79z"/>
   <path d="m503.95 450.63c-167.79 0-303.82 91.801-303.82 205.04v368.32h303.82v-368.32z"/>
   <path d="m503.95 482.49c-158.47 0-286.94 86.701-286.94 193.65v347.86h286.94v-347.86z"/>
  </g>
  <g>
   <path d="m503.95 514.34c-149.15 0-270.06 81.601-270.06 182.26v327.4h270.06v-327.4z"/>
   <rect x="34.796" y="634.61" width="121.37" height="292.45"/>
   <rect x="890.77" y="288.81" width="116.85" height="115.99"/>
   <rect x="503.95" y="515.15" width="119.9" height="425.59"/>
  </g>
  <g fill-opacity=".25">
   <rect x="503.95" y="387.73" width="119.9" height="159.27"/>
   <rect x="503.95" y="419.59" width="119.9" height="111.23"/>
   <rect x="503.95" y="451.44" width="119.9" height="95.562"/>
   <rect x="503.95" y="483.29" width="119.9" height="57.414"/>
   <rect x="668.2" y="287.49" width="110.06" height="118.92"/>
   <rect x="695.01" y="287.49" width="83.253" height="118.92"/>
   <rect x="713.95" y="287.49" width="64.318" height="118.92"/>
   <rect x="734.2" y="287.49" width="44.064" height="118.92"/>
  </g>
  <rect x="756.56" y="287.49" width="21.709" height="118.92"/>
 </g>
</svg>
