<?xml version="1.0" encoding="UTF-8"?>
<svg width="1024" height="1024" version="1.1" viewBox="0 0 1024 1024" xmlns="http://www.w3.org/2000/svg">
 <path d="m0 0h1024v1024h-1024z" fill="#f00" stroke-width="1.0572"/>
 <polygon points="-2e-3 1024 -2e-3 1024 -2e-3 1024 -2e-3 1024" fill="#141414" fill-opacity=".25" stroke="#000"/>
 <polygon points="-2e-3 1024 -2e-3 1024 -2e-3 1024" fill="#141414" fill-opacity=".25" stroke="#000"/>
 <path d="m259.51 7.6426a2.5 2.5 0 0 0-2.5 2.5v71.568 144.45l-73.443 70.42-0.07812 1.4297-0.6875 0.22656-18.922 316.37 0.61719 0.14063 1.1074 2.3867 91.641 29.695 8.4102 61.537 0.03906 0.0332-0.02929 0.03516 22.674 137.54 0.2168 0.18359-0.1289 0.17774 15.184 46.951-15.1 35.006 2.2949 3.4902h77.943l2.2969-3.4902-15.102-35.004 15.184-46.953-0.12891-0.17774 0.2168-0.18359 22.674-137.54-0.0293-0.03321 0.04101-0.03515 8.4082-61.537 91.643-29.695 1.1074-2.3867 0.61719-0.14063-18.922-316.37-0.6875-0.22656-0.07812-1.4297-73.443-70.42v-144.45-71.568a2.5 2.5 0 0 0-2.5-2.5h-140.54zm2.5 5h135.54v66.568h-135.54v-66.568zm38.416 38.523a2.5 2.5 0 0 0-0.33399 0.023437 2.5 2.5 0 0 0-0.07031 0.009766l-29.281 3.9531a2.5 2.5 0 0 0-2.166 2.4785v9.5449a2.5 2.5 0 0 0 2.5 2.5h58.703 58.701a2.5 2.5 0 0 0 2.5-2.5v-9.5449a2.5 2.5 0 0 0-2.1641-2.4766v-0.001953l-29.293-3.9551a2.5 2.5 0 0 0-0.39453-0.03125h-58.701zm-252.02 1.4102-3.3496 2.3516v172.52 71.158 316.37l2.5 2.5h84.238l2.5-2.5v-316.04l18.74-70.84-0.42773-0.55468 0.46484-0.5625-28.309-145.52-1.6035-1.873-74.754-27.008zm562.29 0-74.754 27.008-1.6035 1.873-28.309 145.52 0.46289 0.5625-0.42578 0.55468 18.74 70.84v316.04l2.5 2.5h84.238l2.5-2.5v-316.37-71.158-172.52l-3.3496-2.3516zm-310.12 3.5898h58.381l27.012 3.6484v4.8613h-56.201-56.203v-4.8613l27.012-3.6484zm-250.53 2.3242 70.07 25.314 27.459 141.15h-97.529v-166.46zm558.99 0v166.46h-97.529l27.459-141.15 70.07-25.314zm-347.04 25.721h135.54v140.52h-135.54v-140.52zm477.02 13.555-2.5 2.5v1.3789 30.084 1.3789l2.5 2.5h185.9l2.5-2.5v-31.463-1.3789l-2.5-2.5h-185.9zm2.5 6.3789h180.9v25.084h-180.9v-25.084zm58.133 122.49-0.95704 1.3535-1.2031-0.11328-30.748 52.727 1.2637 1.1152 0.89454 2.6426h137.85l0.89453-2.6426 1.2637-1.1152-30.748-52.727-1.2012 0.11328-0.95703-1.3535h-76.35zm-530.27 3.0879h120.76l-7.4199 4.0078h-105.92l-7.418-4.0078zm-219.34 0.22461h97.314l-17.502 66.158h-79.813v-66.158zm461.68 0h97.314v66.158h-79.812l-17.502-66.158zm-249.73 1.4668 11.828 6.3906 14.338 134.15-26.166 11.344v-151.89zm135.54 0v151.89l-26.166-11.344 3.5801-33.494 10.758-100.66 11.828-6.3906zm-140.54 1.6699v147.14l-15.951-19.072-52.346-62.584 68.297-65.484zm145.54 0 68.297 65.484-52.346 62.584-15.951 19.072v-147.14zm399.65 4.1465h71.277l23.291 38.967h-117.86l23.291-38.967zm-523.24 1.5h101.63l-7.8926 73.84-6.248 58.449h-73.344l-14.143-132.29zm489.46 52.451-91.354 18.465-0.63281 1.9219-1.3711 0.52734v82.625l1.6758 0.64453 0.82421 1.8555h91.354l0.82422-1.8555 1.6758-0.64453v-101.09l-2.0488-0.78906-0.94726-1.6621zm138.84 0-0.94726 1.6641-2.0469 0.78711v101.09l1.6758 0.64453 0.82422 1.8555h91.352l0.82421-1.8555 1.6758-0.64453v-82.625l-1.3711-0.52734-0.63281-1.9219-91.354-18.465zm-144.53 9.6426v87.314h-78.977v-69.951l78.977-17.363zm150.22 0 78.977 17.363v69.951h-78.977v-87.314zm-862.89 0.28126h79.238v311.37h-79.238v-311.37zm479.76 0h79.238v311.37h-79.238v-311.37zm-342.4 3.7051 69.209 82.748-86.855 212.29 17.646-295.04zm284.72 0 17.646 295.04-86.855-212.29 69.209-82.748zm-180.76 71.209h76.797l19.814 8.5898h-116.43l19.814-8.5898zm-29.369 13.59h135.54v252.82h-135.54v-252.82zm-5 10.215v241.66l-87.303-28.289 71.457-174.65 15.846-38.727zm145.54 0 87.303 213.38-87.303 28.287v-241.66zm-354.99 242.83-2.5 2.5v63.092 149.52l0.21484 0.17383-0.17773 0.26171 6.3438 35.865 4.1777 1.3828 50.74-47.842-0.17383-0.33204 0.86719-0.8125 38.555-137.54-0.14258-0.1875 0.21875-0.19532 7.4219-63.094-2.4844-2.791h-103.06zm460.93 0-2.4824 2.791 7.4219 63.094 0.21875 0.19532-0.14258 0.1875 38.555 137.54 0.86524 0.81054-0.17383 0.33399 50.742 47.84 4.1758-1.3828 6.3438-35.865-0.17579-0.25976 0.21485-0.17578v-149.52-63.092l-2.5-2.5h-103.06zm-246.12 4.7754h134.8l-7.9375 58.094h-118.93l-7.9375-58.094zm-212.32 0.22461h97.75l-6.834 58.092h-90.916v-58.092zm461.24 0h97.75v58.092h-90.916l-6.834-58.092zm-240.23 62.869h117.4l-21.852 132.54h-73.701l-21.85-132.54zm-221.02 0.22265h89.844l-37.256 132.91-52.588 11.033v-143.94zm469.15 0h89.844v143.94l-52.588-11.031-37.256-132.91zm-224.97 137.32h71.074l-13.859 42.848h-43.357l-13.857-42.848zm-197.77 1.9941-40.914 38.576-5.1152-28.92 46.029-9.6562zm466.17 0 46.027 9.6562-5.1133 28.92-40.914-38.576zm-254.72 45.854h43.707l13.316 30.869h-70.342l13.318-30.869zm-41.816 68.963-2.5 2.5v1.4824 32.361 1.4824l2.5 2.5h127.34l2.5-2.5v-33.844-1.4824l-2.5-2.5h-127.34zm2.5 6.4824h122.34v27.361h-122.34v-27.361z" fill="#0f0" stop-color="#000000" stroke-linecap="round" stroke-linejoin="bevel"/>
 <polygon points="-2e-3 1024 -2e-3 1024 -2e-3 1024" fill-opacity=".25" stroke="#000"/>
 <polygon points="-2e-3 1024 -2e-3 1024 -2e-3 1024" fill-opacity=".25" stroke="#000"/>
 <g fill="#141414" fill-opacity=".25" stroke="#000">
  <polygon points="-2e-3 1024 -2e-3 1024 -2e-3 1024"/>
  <polygon points="-2e-3 1024 -2e-3 1024 -2e-3 1024"/>
  <polygon points="-2e-3 1024 -2e-3 1024 -2e-3 1024"/>
  <polygon points="-2e-3 1024 -2e-3 1024 -2e-3 1024"/>
  <polygon points="-2e-3 1024 -2e-3 1024 -2e-3 1024"/>
  <polygon points="-2e-3 1024 -2e-3 1024"/>
  <polygon points="-2e-3 1024 -2e-3 1024 -2e-3 1024"/>
  <polygon points="-2e-3 1024 -2e-3 1024 -2e-3 1024"/>
  <polygon points="-2e-3 1024 -2e-3 1024 -2e-3 1024"/>
  <polygon points="-2e-3 1024 -2e-3 1024"/>
  <polygon points="-2e-3 1024 -2e-3 1024 -2e-3 1024"/>
  <polygon points="-2e-3 1024 -2e-3 1024 -2e-3 1024"/>
  <polygon points="-2e-3 1024 -2e-3 1024 -2e-3 1024"/>
  <polygon points="-2e-3 1024 -2e-3 1024 -2e-3 1024"/>
 </g>
 <polygon points="-2e-3 1024 -2e-3 1024 -2e-3 1024" fill-opacity=".25" stroke="#000"/>
 <g fill="#141414" fill-opacity=".25" stroke="#000">
  <polygon points="-2e-3 1024 -2e-3 1024 -2e-3 1024"/>
  <polygon points="-2e-3 1024 -2e-3 1024 -2e-3 1024"/>
  <polygon points="-2e-3 1024 -2e-3 1024 -2e-3 1024"/>
  <polygon points="-2e-3 1024 -2e-3 1024"/>
  <polygon points="-2e-3 1024 -2e-3 1024 -2e-3 1024"/>
 </g>
 <polygon points="-2e-3 1024 -2e-3 1024 -2e-3 1024" fill-opacity=".25" stroke="#000"/>
 <g fill="#141414" fill-opacity=".25" stroke="#000">
  <polygon points="-2e-3 1024 -2e-3 1024 -2e-3 1024"/>
  <polygon points="-2e-3 1024 -2e-3 1024 -2e-3 1024"/>
  <polygon points="-2e-3 1024 -2e-3 1024 -2e-3 1024"/>
  <polygon points="-2e-3 1024 -2e-3 1024"/>
  <polygon points="-2e-3 1024 -2e-3 1024 -2e-3 1024"/>
  <polygon points="-2e-3 1024 -2e-3 1024 -2e-3 1024"/>
  <polygon points="-2e-3 1024 -2e-3 1024 -2e-3 1024"/>
  <polygon points="-2e-3 1024 -2e-3 1024"/>
  <polygon points="-2e-3 1024 -2e-3 1024 -2e-3 1024"/>
  <polygon points="-2e-3 1024 -2e-3 1024 -2e-3 1024"/>
  <polygon points="-2e-3 1024 -2e-3 1024 -2e-3 1024"/>
  <polygon points="-2e-3 1024 -2e-3 1024 -2e-3 1024"/>
 </g>
 <polygon points="-2e-3 1024 -2e-3 1024 -2e-3 1024" fill-opacity=".25" stroke="#000"/>
 <g fill="#141414" fill-opacity=".25" stroke="#000">
  <polygon points="-2e-3 1024 -2e-3 1024 -2e-3 1024"/>
  <polygon points="-2e-3 1024 -2e-3 1024 -2e-3 1024"/>
  <polygon points="-2e-3 1024 -2e-3 1024 -2e-3 1024"/>
 </g>
 <g fill="#1a0000" fill-opacity=".25" stroke="#000">
  <polygon points="-2e-3 1024 -2e-3 1024"/>
  <polygon points="0 1024 0 1024"/>
  <polygon points="-2e-3 1024 -2e-3 1024"/>
  <polygon points="0 1024 0 1024"/>
  <polygon points="0 1024 0 1024"/>
 </g>
</svg>
